<?xml version="1.0" encoding="UTF-8"?>
<svg width="84px" height="128px" viewBox="0 0 84 128" version="1.1" xmlns="http://www.w3.org/2000/svg" xmlns:xlink="http://www.w3.org/1999/xlink">
    <!-- Generator: Sketch 46.2 (44496) - http://www.bohemiancoding.com/sketch -->
    <title>Glimpse Logo Icon White on Gray</title>
    <desc>Created with Sketch.</desc>
    <defs></defs>
    <g id="Page-1" stroke="none" stroke-width="1" fill="none" fill-rule="evenodd">
        <g id="Glimpse-Logo-Icon-White-on-Gray" transform="translate(-54.000000, -32.000000)" fill="#FEFEFE">
            <path d="M116.389682,73.2273645 C113.709757,59.3899065 108.253907,48.8218318 96.1641869,41.0862056 C83.5774206,49.1340561 78.1018318,60.4225794 75.6399252,74.8360374 L75.803215,74.6682617 C86.9553645,63.5197009 104.448,63.1034019 116.389682,73.2273645 Z M76.6788785,135.150056 L76.6699065,146.448449 C76.6699065,152.370841 84.4064299,151.994916 84.525757,146.481645 C84.525757,142.00015 84.5320374,137.517757 84.534729,133.035364 C81.8826168,133.561121 79.2610093,134.270804 76.6788785,135.150056 Z M107.324411,133.207626 L107.329794,146.481645 C107.445533,151.981458 115.186542,152.378916 115.186542,146.448449 L115.181159,135.55828 C112.574804,134.565981 109.953196,133.785421 107.324411,133.207626 Z M92.013757,132.053832 L92.0218318,155.005907 L92.0218318,155.018467 L92.0290093,155.018467 L92.0290093,155.034617 L92.0218318,155.034617 C92.1447477,160.674393 100.011364,160.753346 99.8776822,155.036411 L99.8776822,155.001421 L99.8705047,132.103178 C97.243514,131.89772 94.6210093,131.885159 92.013757,132.053832 Z M99.0531589,106.201121 C97.3090093,107.555888 95.2974953,108.241346 93.0823178,108.241346 C81.0877009,108.241346 81.1208972,93.0993645 87.1321121,85.6616075 C89.4361121,82.8165981 92.6525607,80.8750654 96.6423925,80.8750654 C98.9194766,80.8750654 101.039551,81.5156636 102.66886,83.1476636 C105.013234,79.7535701 110.850393,81.9391402 109.855402,86.4906168 L107.450916,98.0007477 C105.767776,106.058467 124.50572,94.184972 113.461234,80.9809346 C99.7215701,66.3808598 74.8333458,75.3160374 74.8333458,95.7981308 C74.8333458,101.902654 77.3069159,107.429383 81.3057196,111.428187 C85.3036262,115.426991 90.8321495,117.903252 96.9330841,117.903252 C99.2962991,117.903252 101.568897,117.545271 103.684486,116.871477 C105.853009,116.183327 107.877084,115.164112 109.685832,113.859589 C111.080972,112.854729 112.538916,112.917533 113.691813,113.563514 C114.177196,113.832673 114.605159,114.209495 114.939813,114.647327 C115.270879,115.083364 115.521196,115.591178 115.662953,116.130393 C116.009271,117.453757 115.70243,118.95028 114.355738,120.070879 L114.28486,120.127402 C111.801421,121.901159 109.025495,123.307963 106.042318,124.261682 C103.161421,125.182206 100.098393,125.681047 96.9330841,125.681047 L96.8954019,125.681047 L96.763514,125.732187 C85.5261308,125.601196 74.312972,129.129869 62.1774953,136.295776 L62.1676262,136.278729 C59.4464299,137.965458 55.7930467,136.442019 55.1318131,133.25428 L55.112972,133.258766 C53.0242991,117.498617 55.3022804,102.735252 66.3413832,93.3442991 C66.4634019,68.1492336 71.556785,46.363514 93.7202243,33.4770841 C95.1988037,32.6911402 97.2838879,32.7144673 98.5157383,33.4241495 C120.43514,46.1419065 125.895477,67.7553645 125.978916,92.4820935 L125.982505,93.3442991 C136.842168,102.559402 139.593869,119.958729 136.649271,133.426542 C135.769121,136.309234 132.431551,137.597607 129.853907,136.12172 C128.91185,135.605832 119.636636,130.967327 119.382729,130.79686 C115.868411,128.434542 118.632673,122.888972 122.679028,124.298467 C125.125682,125.348187 127.60015,126.541458 130.115888,127.876486 C131.136897,114.303701 129.115514,106.194841 121.576374,99.8516636 C117.949009,104.99529 104.245234,113.164262 99.0531589,106.201121 Z M97.2506916,87.0746916 C93.988486,87.0746916 92.2443364,90.8195888 91.5660561,93.5174579 C90.9236636,96.0762617 90.3485607,101.99686 94.3554393,101.99686 C97.7450467,101.99686 99.4658692,97.8661682 100.180037,95.1019065 C100.872673,92.4282617 101.27372,87.0746916 97.2506916,87.0746916 Z M80.4201869,120.706991 C78.756785,119.601645 77.2109159,118.335701 75.803215,116.929794 C71.9425794,113.067364 69.1316636,108.152523 67.8423925,102.65271 C62.0177944,109.332336 61.8437383,117.631402 62.6207103,127.950056 C68.7566355,124.695028 74.6503178,122.282467 80.4201869,120.706991 L80.4201869,120.706991 Z" id="Fill-2"></path>
        </g>
    </g>
</svg>