
<svg width="114px" height="35px" viewBox="0 0 114 35" version="1.1" xmlns="http://www.w3.org/2000/svg" xmlns:xlink="http://www.w3.org/1999/xlink">
  <!-- Generator: Sketch 47 (45396) - http://www.bohemiancoding.com/sketch -->
  <desc>Created with Sketch.</desc>
  <title>Glimpse Logo Horizontal White on Gray</title>
  <defs></defs>
  <g id="Page-1" stroke="none" stroke-width="1" fill="none" fill-rule="evenodd">
    <g id="GLIMPSE" transform="translate(-50.000000, -15.000000)">
      <g id="Group-34" transform="translate(50.000000, 15.000000)">
        <path d="M45.871,17.212 C46.069001,17.4173344 46.168,17.6666652 46.168,17.96 L46.168,22.91 C46.168,23.306002 45.9920018,23.6139989 45.64,23.834 C44.96533,24.2740022 44.2246707,24.6149988 43.418,24.857 C42.6113293,25.0990012 41.7826709,25.22 40.932,25.22 C39.465326,25.22 38.1196728,24.8680035 36.895,24.164 C35.6703272,23.4599965 34.7060035,22.503006 34.002,21.293 C33.2979965,20.0829939 32.946,18.7520073 32.946,17.3 C32.946,15.8479927 33.2979965,14.517006 34.002,13.307 C34.7060035,12.0969939 35.6703272,11.1400035 36.895,10.436 C38.1196728,9.73199648 39.465326,9.38 40.932,9.38 C41.665337,9.38 42.3729966,9.46066586 43.055,9.622 C43.7370034,9.78333414 44.3493306,10.0253317 44.892,10.348 C45.0680009,10.4506672 45.1999996,10.5753326 45.288,10.722 C45.3760004,10.8686674 45.42,11.0299991 45.42,11.206 C45.42,11.4993348 45.321001,11.7523323 45.123,11.965 C44.924999,12.1776677 44.6866681,12.284 44.408,12.284 C44.1879989,12.284 43.9973341,12.2326672 43.836,12.13 C42.8826619,11.6899978 41.9146716,11.47 40.932,11.47 C39.8759947,11.47 38.911671,11.7266641 38.039,12.24 C37.166329,12.7533359 36.4770025,13.4573289 35.971,14.352 C35.4649975,15.2466711 35.212,16.229328 35.212,17.3 C35.212,18.370672 35.4649975,19.3496622 35.971,20.237 C36.4770025,21.1243378 37.166329,21.8283307 38.039,22.349 C38.911671,22.8696693 39.8759947,23.13 40.932,23.13 C41.4306692,23.13 41.9549972,23.0713339 42.505,22.954 C43.0550027,22.8366661 43.527998,22.6826676 43.924,22.492 L43.924,18.994 L41.262,18.994 C40.9686652,18.994 40.7193344,18.895001 40.514,18.697 C40.3086656,18.498999 40.206,18.2533348 40.206,17.96 C40.206,17.6519985 40.3086656,17.399001 40.514,17.201 C40.7193344,17.002999 40.9686652,16.904 41.262,16.904 L45.134,16.904 C45.4273348,16.904 45.672999,17.0066656 45.871,17.212 Z M50.81,24.692 C50.6046656,24.8973344 50.3553348,25 50.062,25 C49.7686652,25 49.523001,24.8973344 49.325,24.692 C49.126999,24.4866656 49.028,24.2373348 49.028,23.944 L49.028,9.776 C49.028,9.4826652 49.1306656,9.23333436 49.336,9.028 C49.5413344,8.82266564 49.7906652,8.72 50.084,8.72 C50.3773348,8.72 50.622999,8.82266564 50.821,9.028 C51.019001,9.23333436 51.118,9.4826652 51.118,9.776 L51.118,23.944 C51.118,24.2373348 51.0153344,24.4866656 50.81,24.692 Z M56.101,24.692 C55.902999,24.8973344 55.6500015,25 55.342,25 C55.0486652,25 54.803001,24.8973344 54.605,24.692 C54.406999,24.4866656 54.308,24.2373348 54.308,23.944 L54.308,14.418 C54.308,14.1246652 54.406999,13.8753344 54.605,13.67 C54.803001,13.4646656 55.0486652,13.362 55.342,13.362 C55.6500015,13.362 55.902999,13.4646656 56.101,13.67 C56.299001,13.8753344 56.398,14.1246652 56.398,14.418 L56.398,23.944 C56.398,24.2373348 56.299001,24.4866656 56.101,24.692 Z M54.429,11.679 C54.2456658,11.5249992 54.154,11.279335 54.154,10.942 L54.154,10.59 C54.154,10.2379982 54.252999,9.9886674 54.451,9.842 C54.649001,9.6953326 54.9533313,9.622 55.364,9.622 C55.7746687,9.622 56.0716657,9.69899923 56.255,9.853 C56.4383342,10.0070008 56.53,10.252665 56.53,10.59 L56.53,10.942 C56.53,11.2940018 56.4346676,11.5433326 56.244,11.69 C56.0533324,11.8366674 55.7526687,11.91 55.342,11.91 C54.9166645,11.91 54.6123342,11.8330008 54.429,11.679 Z M76.484,18.07 L76.484,23.944 C76.484,24.2520015 76.3886676,24.504999 76.198,24.703 C76.0073324,24.901001 75.7580015,25 75.45,25 C75.1419985,25 74.889001,24.8973344 74.691,24.692 C74.492999,24.4866656 74.394,24.2373348 74.394,23.944 L74.394,18.092 C74.394,16.1706571 73.5873414,15.21 71.974,15.21 C71.4019971,15.21 70.8850023,15.338332 70.423,15.595 C69.9609977,15.8516679 69.6016679,16.1999978 69.345,16.64 C69.088332,17.0800022 68.96,17.5639974 68.96,18.092 L68.96,23.944 C68.96,24.2373348 68.861001,24.4866656 68.663,24.692 C68.464999,24.8973344 68.2120015,25 67.904,25 C67.5959985,25 67.3466676,24.901001 67.156,24.703 C66.9653324,24.504999 66.87,24.2520015 66.87,23.944 L66.87,18.07 C66.87,17.2046623 66.6866685,16.5116693 66.32,15.991 C65.9533315,15.4703307 65.3446709,15.21 64.494,15.21 C63.6286623,15.21 62.9136695,15.4849972 62.349,16.035 C61.7843305,16.5850027 61.502,17.2633293 61.502,18.07 L61.502,23.944 C61.502,24.2373348 61.403001,24.4866656 61.205,24.692 C61.006999,24.8973344 60.7540015,25 60.446,25 C60.1379985,25 59.8886676,24.901001 59.698,24.703 C59.5073324,24.504999 59.412,24.2520015 59.412,23.944 L59.412,14.528 C59.412,14.2346652 59.510999,13.9853344 59.709,13.78 C59.907001,13.5746656 60.1526652,13.472 60.446,13.472 C60.7540015,13.472 61.006999,13.5746656 61.205,13.78 C61.403001,13.9853344 61.502,14.2346652 61.502,14.528 L61.502,15.298 C61.8833352,14.7259971 62.3929968,14.2456686 63.031,13.857 C63.6690032,13.4683314 64.3619963,13.274 65.11,13.274 C66.9286758,13.274 68.1093306,14.0806586 68.652,15.694 C68.9746683,15.0779969 69.5099963,14.5206692 70.258,14.022 C71.0060037,13.5233308 71.7979958,13.274 72.634,13.274 C75.2006795,13.274 76.484,14.8726507 76.484,18.07 Z M88.1,14.033 C88.9066707,14.5390025 89.5409977,15.2466621 90.003,16.156 C90.4650023,17.0653379 90.696,18.0919943 90.696,19.236 C90.696,20.3800057 90.4650023,21.4029955 90.003,22.305 C89.5409977,23.2070045 88.9066707,23.9146641 88.1,24.428 C87.2933293,24.9413359 86.4060048,25.198 85.438,25.198 C84.6753295,25.198 83.9640033,25.029335 83.304,24.692 C82.6439967,24.354665 82.1086687,23.9440024 81.698,23.46 L81.698,28.344 C81.698,28.6373348 81.599001,28.8866656 81.401,29.092 C81.202999,29.2973344 80.9500015,29.4 80.642,29.4 C80.3486652,29.4 80.103001,29.301001 79.905,29.103 C79.706999,28.904999 79.608,28.6520015 79.608,28.344 L79.608,14.506 C79.608,14.1979985 79.7033324,13.9413344 79.894,13.736 C80.0846676,13.5306656 80.3339985,13.428 80.642,13.428 C80.9500015,13.428 81.202999,13.5306656 81.401,13.736 C81.599001,13.9413344 81.698,14.1979985 81.698,14.506 L81.698,15.144 C82.0500018,14.6306641 82.56333,14.1906685 83.238,13.824 C83.91267,13.4573315 84.6313295,13.274 85.394,13.274 C86.3913383,13.274 87.2933293,13.5269975 88.1,14.033 Z M86.978,22.734 C87.5206694,22.3819982 87.9423318,21.9016697 88.243,21.293 C88.5436682,20.6843303 88.694,19.9986705 88.694,19.236 C88.694,18.4733295 88.5436682,17.7876697 88.243,17.179 C87.9423318,16.5703303 87.5206694,16.0900018 86.978,15.738 C86.4353306,15.3859982 85.82667,15.21 85.152,15.21 C84.4626632,15.21 83.8466694,15.3823316 83.304,15.727 C82.7613306,16.0716684 82.3396682,16.5519969 82.039,17.168 C81.7383318,17.7840031 81.588,18.4733295 81.588,19.236 C81.588,19.9986705 81.7383318,20.6879969 82.039,21.304 C82.3396682,21.9200031 82.7613306,22.4003316 83.304,22.745 C83.8466694,23.0896684 84.4626632,23.262 85.152,23.262 C85.82667,23.262 86.4353306,23.0860018 86.978,22.734 Z M92.258,22.602 C92.258,22.3086652 92.4119985,22.0593344 92.72,21.854 C92.8666674,21.7513328 93.0353324,21.7 93.226,21.7 C93.4900013,21.7 93.7319989,21.8099989 93.952,22.03 C94.3920022,22.5286692 94.8649975,22.9026654 95.371,23.152 C95.8770025,23.4013346 96.4819965,23.526 97.186,23.526 C97.7433361,23.5113333 98.2346645,23.3830012 98.66,23.141 C99.0853355,22.8989988 99.298,22.5066694 99.298,21.964 C99.298,21.4653308 99.0816688,21.0840013 98.649,20.82 C98.2163312,20.5559987 97.5820042,20.3140011 96.746,20.094 C95.9246626,19.8739989 95.2426694,19.6430012 94.7,19.401 C94.1573306,19.1589988 93.6990019,18.8070023 93.325,18.345 C92.9509981,17.8829977 92.764,17.2780037 92.764,16.53 C92.764,15.8699967 92.9509981,15.2906692 93.325,14.792 C93.6990019,14.2933308 94.1976635,13.9046681 94.821,13.626 C95.4443364,13.3473319 96.122663,13.208 96.856,13.208 C97.5600035,13.208 98.2603298,13.3399987 98.957,13.604 C99.6536701,13.8680013 100.221998,14.2713306 100.662,14.814 C100.838001,15.0193344 100.926,15.2319989 100.926,15.452 C100.926,15.6866678 100.808668,15.9139989 100.574,16.134 C100.427333,16.2660007 100.244001,16.332 100.024,16.332 C99.7599987,16.332 99.5473341,16.2440009 99.386,16.068 C99.0779985,15.7159982 98.7003356,15.4446676 98.253,15.254 C97.8056644,15.0633324 97.3106694,14.968 96.768,14.968 C96.2106639,14.968 95.7376686,15.0816655 95.349,15.309 C94.9603314,15.5363345 94.766,15.9213306 94.766,16.464 C94.7806667,16.9773359 95.0043312,17.3586654 95.437,17.608 C95.8696688,17.8573346 96.5333289,18.0993322 97.428,18.334 C98.2053372,18.5393344 98.8506641,18.7593322 99.364,18.994 C99.8773359,19.2286678 100.309998,19.5769977 100.662,20.039 C101.014002,20.5010023 101.19,21.1059963 101.19,21.854 C101.19,22.5433368 100.992002,23.1409975 100.596,23.647 C100.199998,24.1530025 99.6830032,24.5416653 99.045,24.813 C98.4069968,25.0843347 97.7286703,25.22 97.01,25.22 C96.0859954,25.22 95.2316706,25.0586683 94.447,24.736 C93.6623294,24.4133317 92.9986694,23.9000035 92.456,23.196 C92.3239993,22.9906656 92.258,22.7926676 92.258,22.602 Z M113.4,19.467 C113.194666,19.6503342 112.952668,19.742 112.674,19.742 L104.93,19.742 C105.032667,20.812672 105.439663,21.6706634 106.151,22.316 C106.862337,22.9613366 107.731328,23.284 108.758,23.284 C109.462004,23.284 110.033998,23.1813344 110.474,22.976 C110.914002,22.7706656 111.302665,22.5066683 111.64,22.184 C111.860001,22.0519993 112.072666,21.986 112.278,21.986 C112.527335,21.986 112.736332,22.0739991 112.905,22.25 C113.073668,22.4260009 113.158,22.6313322 113.158,22.866 C113.158,23.1740015 113.011335,23.4526654 112.718,23.702 C112.292665,24.1273355 111.728004,24.4866652 111.024,24.78 C110.319996,25.0733348 109.601337,25.22 108.868,25.22 C107.679994,25.22 106.635005,24.9706692 105.733,24.472 C104.830995,23.9733308 104.134336,23.2766711 103.643,22.382 C103.151664,21.4873289 102.906,20.475339 102.906,19.346 C102.906,18.1139938 103.158997,17.032338 103.665,16.101 C104.171003,15.169662 104.838329,14.4546692 105.667,13.956 C106.495671,13.4573308 107.386662,13.208 108.34,13.208 C109.278671,13.208 110.158663,13.4499976 110.98,13.934 C111.801337,14.4180024 112.461331,15.0853291 112.96,15.936 C113.458669,16.7866709 113.715333,17.7399947 113.73,18.796 C113.715333,19.0600013 113.605334,19.2836657 113.4,19.467 Z M106.206,15.837 C105.604664,16.2990023 105.208668,17.0139952 105.018,17.982 L111.508,17.982 L111.508,17.806 C111.434666,17.0286628 111.086336,16.3906692 110.463,15.892 C109.839664,15.3933308 109.132004,15.144 108.34,15.144 C107.518663,15.144 106.807336,15.3749977 106.206,15.837 Z" id="Glimpse" fill="#FFFFFF"></path>
        <path d="M7.11168292,23.7494289 C6.6567149,23.4505478 6.23396021,23.1079979 5.84902904,22.7278641 C4.79322817,21.6832121 4.02445166,20.3541756 3.67191479,18.86675 C2.07916479,20.6731014 2.03174967,22.917752 2.24421286,25.7080844 C3.92202052,24.8277274 5.53377276,24.1753792 7.11168292,23.7494289 M11.7140264,14.6537795 C10.8220068,14.6537795 10.345141,15.6667537 10.1596429,16.3962383 C9.98391735,17.0881391 9.82665116,18.689569 10.9222663,18.689569 C11.8492138,18.689569 12.3197456,17.5722549 12.5151972,16.8248732 C12.7046768,16.1018315 12.8141659,14.6537795 11.7140264,14.6537795 M12.2069989,19.8265699 C11.7299521,20.192744 11.1797919,20.3781577 10.5740728,20.3781577 C7.29410446,20.3781577 7.30315315,16.2831288 8.94711872,14.271677 C9.57708835,13.502282 10.4566208,12.9773609 11.5477116,12.9773609 C12.1704422,12.9773609 12.7501012,13.1506045 13.1958395,13.5919463 C13.8370295,12.6736476 15.433218,13.2649668 15.1612145,14.4959273 L14.5037368,17.6085859 C14.0433396,19.7877333 19.1674304,16.5766408 16.1471595,13.0056382 C12.3897824,9.0573654 5.58354055,11.4740069 5.58354055,17.0129714 C5.58354055,18.6639762 6.26020141,20.1587396 7.35364482,21.2400806 C8.44708824,22.3214216 9.958762,22.99113 11.62734,22.99113 C12.2735973,22.99113 12.8950611,22.8943069 13.4734533,22.7122937 C14.0665042,22.5259851 14.620103,22.2503702 15.1145232,21.897619 C15.4961969,21.6257625 15.8948821,21.6427647 16.2103193,21.8174401 C16.3431541,21.8902812 16.4600631,21.9921155 16.5514548,22.1105941 C16.6423037,22.2283569 16.7107118,22.3659853 16.7492592,22.5116675 C16.8440894,22.8696089 16.7599366,23.2742617 16.391655,23.5774381 L16.3722908,23.5926506 C15.6932773,24.0722921 14.9340924,24.4527838 14.1182627,24.7106806 C13.330665,24.9596289 12.4927565,25.0943938 11.62734,25.0943938 L11.6170245,25.0943938 L11.5808297,25.1083535 C8.50789542,25.0730963 5.44147615,26.0271891 2.12277947,27.965263 L2.12006486,27.9607887 C1.37571982,28.4166271 0.377106646,28.0046365 0.195951919,27.1425346 L0.190884654,27.1437874 C-0.38026851,22.8817789 0.242462174,18.8891213 3.26146632,16.349169 C3.29494647,9.53557514 4.6875395,3.64403834 10.7487124,0.158941704 C11.1530078,-0.0536754991 11.7232561,-0.0474115243 12.0602292,0.144445077 C18.0540799,3.58408315 19.5474753,9.42926653 19.570459,16.1161492 L19.5715448,16.349169 C22.5411432,18.8413362 23.293632,23.547013 22.4882988,27.189246 C22.2474228,27.9688424 21.3349531,28.3172983 20.6298793,27.9180147 C20.3723537,27.7787755 17.8360065,26.5241908 17.7665126,26.4780164 C16.805361,25.8390909 17.5614694,24.3394953 18.6681239,24.720703 C19.3370029,25.0047295 20.0136637,25.3272347 20.701545,25.6882186 C20.9809684,22.0177083 20.4280936,19.8247802 18.3660787,18.109167 C17.3743425,19.5004853 13.626919,21.7095208 12.2069989,19.8265699 M10.2819811,26.8180607 L10.2843338,33.0251229 L10.2843338,33.0285233 L10.2861435,33.0285233 L10.2861435,33.0329976 L10.2843338,33.0329976 C10.3178139,34.5583649 12.4692299,34.5794835 12.4324922,33.0333555 L12.4324922,33.024049 L12.4306825,26.8313045 C11.7120357,26.7758236 10.9950177,26.7724232 10.2819811,26.8180607 M14.4689899,27.1300067 L14.4706186,30.7198012 C14.5021081,32.2072267 16.6189581,32.3146091 16.6189581,30.7108526 L16.6175103,27.7657106 C15.9048356,27.4974335 15.1876366,27.2862481 14.4689899,27.1300067 M6.08863829,27.6552857 L6.08592368,30.7108526 C6.08592368,32.3124615 8.20150686,32.2108061 8.23444408,30.7198012 C8.23444408,29.5078115 8.23589187,28.2954639 8.23643479,27.0832953 C7.51145394,27.225577 6.7946169,27.4176126 6.08863829,27.6552857 M16.9481493,10.9089964 C16.2152056,7.16671882 14.723077,4.30891452 11.4168675,2.21656796 C7.97492772,4.39303076 6.47773186,7.44591313 5.80414755,11.3440742 L5.84902904,11.2986156 C8.89861775,8.28349605 13.6824779,8.17110244 16.9481493,10.9089964" id="Fill-1" fill="#FCFBFA"></path>
      </g>
    </g>
  </g>
</svg>
